<svg width="1920" height="189" viewBox="0 0 1920 189" fill="none" xmlns="http://www.w3.org/2000/svg">
<path d="M-0.650024 123.266C-0.650024 123.266 48.8226 94.1268 94.229 92.0938C140.313 90.0608 179.62 92.0938 235.87 102.259C312.451 115.812 460.191 170.703 538.805 140.886C617.419 111.068 620.808 109.713 660.792 90.7385C705.521 69.0532 796.334 25.6826 908.833 27.7156C1028.79 29.7486 1246.33 140.208 1335.79 134.787C1345.28 134.109 1380.52 129.365 1406.95 121.233C1432.7 113.101 1470.65 95.4822 1522.16 89.3832C1543.84 86.6725 1578.41 81.9289 1618.39 83.2842C1628.56 83.9619 1661.09 85.9949 1699.72 94.1268C1738.35 102.259 1774.27 115.134 1806.8 119.2C1876.6 126.655 1920.65 115.812 1920.65 115.812V189H-0.650024V123.266ZM153.19 112.424C157.934 119.2 166.744 115.134 182.331 115.134C197.918 115.134 223.671 123.266 221.638 122.589C219.605 121.911 200.629 112.424 180.975 109.713C160.644 106.325 149.123 105.647 153.19 112.424ZM277.888 130.721C277.888 130.721 294.153 132.076 315.839 136.82C337.526 142.241 385.643 155.794 418.173 160.538C473.745 167.992 525.251 160.538 520.507 159.86C515.085 159.183 455.447 163.926 401.23 152.406C378.866 147.662 338.204 137.497 317.195 134.109C294.83 130.043 277.888 130.721 277.888 130.721ZM665.536 131.398C654.015 136.142 755.671 99.5482 790.912 90.0608C805.144 85.9948 832.93 79.2182 858.683 76.5075C885.113 73.7969 918.999 73.7969 918.321 73.1192C918.321 71.7639 879.014 67.6979 842.418 73.1192C805.822 78.5405 807.177 80.5735 790.912 83.9619C765.159 89.3832 677.057 126.655 665.536 131.398ZM571.335 142.241C569.979 142.241 576.757 144.952 603.865 134.787C630.973 124.622 649.271 111.068 650.627 109.713C651.982 109.035 626.907 121.911 605.898 130.043C585.567 138.175 572.013 142.241 571.335 142.241ZM2.73853 148.34C3.41626 147.662 15.6149 140.886 35.2684 131.398C54.9219 121.911 82.0303 112.424 80.6748 113.101C79.3195 113.101 56.9552 117.167 30.5245 130.043C4.09399 142.919 2.06079 149.018 2.73853 148.34ZM1708.53 110.391C1707.85 111.746 1721.4 111.746 1739.02 118.523C1756.64 125.299 1775.62 129.365 1791.89 132.076C1818.99 137.497 1871.18 131.398 1868.47 130.721C1866.43 130.043 1812.89 132.754 1783.75 125.977C1768.84 122.589 1767.49 122.589 1745.12 115.134C1722.76 107.68 1709.21 108.358 1708.53 110.391ZM1425.92 126.655C1423.21 127.332 1402.2 137.497 1369 144.274C1335.79 151.728 1308.68 147.662 1308.68 149.695C1308.68 151.728 1315.46 155.794 1350.7 151.728C1385.94 147.662 1428.63 125.977 1425.92 126.655ZM1435.41 143.596C1434.06 142.919 1412.37 152.406 1396.78 155.117C1381.2 157.15 1383.91 158.505 1383.91 159.183C1383.91 159.86 1391.36 160.538 1402.2 157.827C1413.73 154.439 1436.77 144.274 1435.41 143.596ZM1286.32 159.183C1285.64 157.827 1262.6 153.761 1248.36 146.985C1234.13 140.208 1236.17 142.919 1235.49 143.596C1234.81 144.274 1240.91 149.018 1251.75 152.406C1262.6 156.472 1286.99 160.538 1286.32 159.183ZM1477.43 113.779C1478.11 111.746 1475.4 110.391 1464.55 115.134C1453.71 119.878 1446.93 123.944 1449.64 123.266C1452.35 122.589 1455.74 120.556 1466.59 117.845C1478.11 115.134 1476.75 115.812 1477.43 113.779ZM1686.84 104.969C1688.2 104.969 1672.61 99.5482 1664.48 98.8705C1656.34 98.1928 1650.92 98.1928 1650.92 100.226C1650.92 102.259 1651.6 103.614 1661.77 102.936C1672.61 102.259 1685.49 104.969 1686.84 104.969ZM889.18 46.0126C889.857 45.3349 905.445 48.0456 940.008 48.0456C973.893 48.0456 1032.18 64.3096 1056.57 71.7639C1080.97 79.2182 988.803 45.3349 944.752 43.9796C900.701 42.6243 888.502 46.6902 889.18 46.0126Z" fill="#F3F3F7"/>
<path d="M93.5512 67.0208C94.2289 67.6984 124.726 64.9878 142.346 67.0208C191.819 71.7644 257.556 88.706 254.846 86.673C252.135 84.6401 162 65.6654 139.635 64.3101C106.428 61.5994 92.8735 67.0208 93.5512 67.0208Z" fill="#F3F3F7"/>
<path d="M379.544 122.589C380.899 123.267 410.041 129.366 443.926 130.721C477.811 132.076 529.995 126.655 527.284 127.333C525.251 128.01 487.299 139.531 437.149 135.465C386.999 131.399 378.188 121.911 379.544 122.589Z" fill="#F3F3F7"/>
<path d="M534.739 98.1933C535.416 98.871 521.185 104.97 513.052 105.648C504.92 106.325 499.498 105.648 499.498 103.615C499.498 101.582 500.176 100.226 510.341 100.904C521.862 101.582 534.061 97.5156 534.739 98.1933Z" fill="#F3F3F7"/>
<path d="M558.458 117.168C558.458 117.846 588.278 109.036 601.154 102.259C614.03 96.1602 643.172 81.2516 642.494 81.2516C641.816 80.5739 614.03 92.0942 599.799 98.8709C585.567 105.648 558.458 116.49 558.458 117.168Z" fill="#F3F3F7"/>
<path d="M873.592 8.0642C874.27 8.74186 904.767 6.0312 922.387 8.0642C971.86 12.8079 1037.6 29.7495 1034.89 27.7165C1032.18 25.6835 942.041 6.70887 919.676 5.35354C886.469 2.64287 872.915 7.38653 873.592 8.0642Z" fill="#F3F3F7"/>
<path d="M1636.69 58.2112C1636.69 58.2112 1628.56 60.2442 1617.04 58.8888C1605.52 57.5335 1577.73 52.7899 1561.47 54.1452C1533 56.8559 1511.31 72.4422 1514.03 71.7645C1516.74 71.7645 1543.17 56.8559 1572.31 58.8888C1584.51 59.5665 1606.87 62.2772 1617.71 61.5995C1628.56 60.9219 1636.69 58.2112 1636.69 58.2112Z" fill="#F3F3F7"/>
<path d="M1408.98 103.615C1407.63 102.937 1395.43 109.036 1379.84 111.069C1364.25 112.424 1365.61 113.102 1365.61 114.457C1365.61 115.135 1377.81 117.168 1388.65 114.457C1399.49 111.069 1410.34 104.292 1408.98 103.615Z" fill="#F3F3F7"/>
<path d="M1814.93 99.5486C1814.93 100.226 1785.79 99.5486 1769.52 96.1603C1753.26 92.772 1735.64 83.2847 1735.64 82.607C1735.64 81.9293 1753.93 88.0283 1770.2 92.0943C1785.79 96.1603 1814.25 98.871 1814.93 99.5486Z" fill="#F3F3F7"/>
</svg>
